<mxfile host="65bd71144e">
    <diagram id="23iRSUPoRavnBvh4doch" name="Page-1">
        <mxGraphModel dx="952" dy="1944" grid="1" gridSize="10" guides="1" tooltips="1" connect="1" arrows="1" fold="1" page="1" pageScale="1" pageWidth="827" pageHeight="1169" math="0" shadow="0">
            <root>
                <mxCell id="0"/>
                <mxCell id="1" parent="0"/>
                <mxCell id="65" value="" style="group" vertex="1" connectable="0" parent="1">
                    <mxGeometry x="120" y="450" width="520" height="310" as="geometry"/>
                </mxCell>
                <mxCell id="5" value="周期开始" style="shape=umlLifeline;perimeter=lifelinePerimeter;whiteSpace=wrap;html=1;container=0;collapsible=0;recursiveResize=0;outlineConnect=0;" parent="65" vertex="1">
                    <mxGeometry width="160" height="310" as="geometry"/>
                </mxCell>
                <mxCell id="22" value="" style="group" parent="65" vertex="1" connectable="0">
                    <mxGeometry x="80" y="60" width="216.36" height="50" as="geometry"/>
                </mxCell>
                <mxCell id="8" value="" style="endArrow=open;endFill=1;endSize=12;html=1;" parent="22" source="5" edge="1">
                    <mxGeometry width="160" relative="1" as="geometry">
                        <mxPoint x="38.96103896103896" y="50" as="sourcePoint"/>
                        <mxPoint x="181.8181818181818" y="50" as="targetPoint"/>
                    </mxGeometry>
                </mxCell>
                <mxCell id="18" style="edgeStyle=none;html=1;exitX=1;exitY=0.5;exitDx=0;exitDy=0;" parent="22" source="13" edge="1">
                    <mxGeometry relative="1" as="geometry">
                        <mxPoint x="186.288130474177" y="50" as="targetPoint"/>
                    </mxGeometry>
                </mxCell>
                <mxCell id="13" value="" style="triangle;whiteSpace=wrap;html=1;direction=north;rotation=-180;" parent="22" vertex="1">
                    <mxGeometry x="172.72727272727272" y="20" width="27.272727272727273" height="10" as="geometry"/>
                </mxCell>
                <mxCell id="7" value="" style="endArrow=open;endFill=1;endSize=12;html=1;" parent="22" edge="1">
                    <mxGeometry width="160" relative="1" as="geometry">
                        <mxPoint x="0.001038961038958064" y="20" as="sourcePoint"/>
                        <mxPoint x="0.001038961038958064" y="50" as="targetPoint"/>
                    </mxGeometry>
                </mxCell>
                <mxCell id="10" value="触发event" style="text;html=1;strokeColor=none;fillColor=none;align=center;verticalAlign=middle;whiteSpace=wrap;rounded=0;" parent="22" vertex="1">
                    <mxGeometry x="-40" width="77.92207792207792" height="20" as="geometry"/>
                </mxCell>
                <mxCell id="52" value="延时n秒" style="text;html=1;strokeColor=none;fillColor=none;align=center;verticalAlign=middle;whiteSpace=wrap;rounded=0;" parent="22" vertex="1">
                    <mxGeometry x="60" y="20" width="60" height="30" as="geometry"/>
                </mxCell>
                <mxCell id="62" value="取消执行" style="text;html=1;strokeColor=none;fillColor=none;align=center;verticalAlign=middle;whiteSpace=wrap;rounded=0;" parent="22" vertex="1">
                    <mxGeometry x="156.36" y="-10" width="60" height="30" as="geometry"/>
                </mxCell>
                <mxCell id="35" value="" style="group" parent="65" vertex="1" connectable="0">
                    <mxGeometry x="160" y="135" width="216.36" height="50" as="geometry"/>
                </mxCell>
                <mxCell id="36" value="" style="endArrow=open;endFill=1;endSize=12;html=1;" parent="35" edge="1">
                    <mxGeometry width="160" relative="1" as="geometry">
                        <mxPoint x="38.96103896103896" y="50" as="sourcePoint"/>
                        <mxPoint x="181.8181818181818" y="50" as="targetPoint"/>
                    </mxGeometry>
                </mxCell>
                <mxCell id="37" style="edgeStyle=none;html=1;exitX=1;exitY=0.5;exitDx=0;exitDy=0;" parent="35" source="38" edge="1">
                    <mxGeometry relative="1" as="geometry">
                        <mxPoint x="186.288130474177" y="50" as="targetPoint"/>
                    </mxGeometry>
                </mxCell>
                <mxCell id="38" value="" style="triangle;whiteSpace=wrap;html=1;direction=north;rotation=-180;" parent="35" vertex="1">
                    <mxGeometry x="172.72727272727272" y="20" width="27.272727272727273" height="10" as="geometry"/>
                </mxCell>
                <mxCell id="39" value="" style="endArrow=open;endFill=1;endSize=12;html=1;" parent="35" edge="1">
                    <mxGeometry width="160" relative="1" as="geometry">
                        <mxPoint x="38.96103896103896" y="20" as="sourcePoint"/>
                        <mxPoint x="38.96103896103896" y="50" as="targetPoint"/>
                    </mxGeometry>
                </mxCell>
                <mxCell id="40" value="触发event" style="text;html=1;strokeColor=none;fillColor=none;align=center;verticalAlign=middle;whiteSpace=wrap;rounded=0;" parent="35" vertex="1">
                    <mxGeometry width="77.92207792207792" height="20" as="geometry"/>
                </mxCell>
                <mxCell id="60" value="延时n秒" style="text;html=1;strokeColor=none;fillColor=none;align=center;verticalAlign=middle;whiteSpace=wrap;rounded=0;" parent="35" vertex="1">
                    <mxGeometry x="77.92000000000002" y="20" width="60" height="30" as="geometry"/>
                </mxCell>
                <mxCell id="63" value="取消执行" style="text;html=1;strokeColor=none;fillColor=none;align=center;verticalAlign=middle;whiteSpace=wrap;rounded=0;" parent="35" vertex="1">
                    <mxGeometry x="156.36" y="-10" width="60" height="30" as="geometry"/>
                </mxCell>
                <mxCell id="41" value="" style="group" parent="65" vertex="1" connectable="0">
                    <mxGeometry x="240" y="220" width="280" height="90" as="geometry"/>
                </mxCell>
                <mxCell id="42" value="" style="endArrow=open;endFill=1;endSize=12;html=1;entryX=0.5;entryY=0.875;entryDx=0;entryDy=0;entryPerimeter=0;" parent="41" target="6" edge="1">
                    <mxGeometry width="160" relative="1" as="geometry">
                        <mxPoint x="40.90909090909091" y="50" as="sourcePoint"/>
                        <mxPoint x="190.9090909090909" y="50" as="targetPoint"/>
                    </mxGeometry>
                </mxCell>
                <mxCell id="43" style="edgeStyle=none;html=1;exitX=1;exitY=0.5;exitDx=0;exitDy=0;" parent="41" source="44" target="6" edge="1">
                    <mxGeometry relative="1" as="geometry">
                        <mxPoint x="200" y="110" as="targetPoint"/>
                        <Array as="points">
                            <mxPoint x="200" y="50"/>
                        </Array>
                    </mxGeometry>
                </mxCell>
                <mxCell id="44" value="" style="triangle;whiteSpace=wrap;html=1;direction=north;rotation=-180;" parent="41" vertex="1">
                    <mxGeometry x="185.68363636363637" y="20" width="28.636363636363633" height="10" as="geometry"/>
                </mxCell>
                <mxCell id="45" value="" style="endArrow=open;endFill=1;endSize=12;html=1;" parent="41" edge="1">
                    <mxGeometry width="160" relative="1" as="geometry">
                        <mxPoint x="40.90909090909091" y="20" as="sourcePoint"/>
                        <mxPoint x="40.90909090909091" y="50" as="targetPoint"/>
                    </mxGeometry>
                </mxCell>
                <mxCell id="46" value="触发event" style="text;html=1;strokeColor=none;fillColor=none;align=center;verticalAlign=middle;whiteSpace=wrap;rounded=0;" parent="41" vertex="1">
                    <mxGeometry width="81.81818181818181" height="20" as="geometry"/>
                </mxCell>
                <mxCell id="6" value="周期结束" style="shape=umlLifeline;perimeter=lifelinePerimeter;whiteSpace=wrap;html=1;container=1;collapsible=0;recursiveResize=0;outlineConnect=0;" parent="41" vertex="1">
                    <mxGeometry x="120" y="-220" width="160" height="310" as="geometry"/>
                </mxCell>
                <mxCell id="61" value="延时n秒" style="text;html=1;strokeColor=none;fillColor=none;align=center;verticalAlign=middle;whiteSpace=wrap;rounded=0;" parent="41" vertex="1">
                    <mxGeometry x="90" y="20" width="60" height="30" as="geometry"/>
                </mxCell>
                <mxCell id="64" value="执行" style="text;html=1;strokeColor=none;fillColor=none;align=center;verticalAlign=middle;whiteSpace=wrap;rounded=0;" parent="41" vertex="1">
                    <mxGeometry x="170" y="-10" width="60" height="30" as="geometry"/>
                </mxCell>
            </root>
        </mxGraphModel>
    </diagram>
</mxfile>